<svg xmlns="http://www.w3.org/2000/svg" viewBox="0 0 680.41 1105.66"><defs><style>.cls-1{fill:#e4d6a7;}</style></defs><title>ok</title><g id="Calque_2" data-name="Calque 2"><g id="Calque_1-2" data-name="Calque 1"><g id="Page-1"><g id="Mid-of-Animation"><g id="Button"><g id="ok"><path id="Shape" class="cls-1" d="M680.41,752.09V591c0-.42,0-.84,0-1.26l-14.5-251.23c-4-69-41.52-79.32-63.55-79.32a82.21,82.21,0,0,0-43.54,12.72L542.67,149.45C534.78,89.5,498,72.84,469,76.77c-31.17,4.23-61.84,31.38-75.85,69L368.89,63.32c-13.14-44.68-41.34-57.67-57-61.44C285.48-4.48,256.1,5.54,235.23,28c-24.95,26.89-33,65.89-21.68,104.33l67.71,228.82c-39.13-8.53-73.46,10.13-113.94,43.41C122.6,441.34,50.47,479.9,33.6,488.21,16,496.88,6.83,516.5,9.66,539.42a79.54,79.54,0,0,0,19.43,42.05,74.72,74.72,0,0,0-20,19.92C-2.37,618.82-3,638.46,7.33,653.94c3,4.47,6.46,8.88,10.13,13.54,11.83,15,28,35.57,43.88,78.55C83.9,807.21,122.71,834.7,153.9,856.8c29.65,21,50.65,35.92,56.28,72.35a21.48,21.48,0,0,0-17.71,21.27v133.64a21.43,21.43,0,0,0,21.26,21.6H641.41a21.43,21.43,0,0,0,21.26-21.6V950.42a21.48,21.48,0,0,0-18-21.32c2.75-23.26,9.4-47.06,16.38-71.93,9.5-33.93,19.34-69,19.34-105.08Zm-60.26,310.38H235V972h96.89a21.6,21.6,0,0,0,0-43.19H253c-6.72-59.2-41.28-83.69-74.82-107.45-29.07-20.6-59.14-41.9-77.06-90.49-18.24-49.43-37.65-74.07-50.49-90.38-3.23-4.11-6-7.66-8.12-10.77.09-1.08,1.38-5.06,6.91-9.92a47.15,47.15,0,0,1,40.32-10c30.92,6.58,39.95,19,53.61,37.88,12.38,17.07,27.79,38.32,61.2,56,23.69,12.57,43.6,21.71,66.1,15.57,21.27-5.79,39.74-24.15,64.48-53.9,19.6-23.58,22.18-50.51,7.46-77.88-11.35-21.1-31.57-40.87-54.87-62.67-37.83-35.41-78.34-10.8-110.88,9C147,552,116.05,570.76,78.65,563c-16.92-3.52-23.45-17.7-25.05-22-2.8-7.46-1.91-12.72-1.2-14,22.16-10.94,94.79-50.25,141.67-88.8,53.42-43.91,75-43.45,109-20.15,9.68,6.64,18.37,9.56,25.35,11.9,9.21,3.09,15.86,5.33,26.9,16.18a21,21,0,0,0,30.07-.5,21.84,21.84,0,0,0-.5-30.54c-18-17.72-31.94-22.4-43.13-26.15a93.6,93.6,0,0,1-8.9-3.32L254.27,119.92c-10-33.84,5-54.82,11.91-62.27,10.47-11.29,24.24-16.56,35.92-13.74,14.85,3.58,22.36,19.25,26,31.77l85.8,291.76c5.22,19.05,15,32.19,23.68,43.79,11.69,15.65,21.78,29.18,24.59,59.19A21.4,21.4,0,0,0,483.35,490a19.9,19.9,0,0,0,2-.1,21.5,21.5,0,0,0,19.15-23.54c-4-42.23-20.08-63.84-33-81.19-7.6-10.19-13.61-18.23-16.64-29.41,0-.15-.08-.3-.13-.44L444,318.81,428.45,200.46c-5.8-44.06,23.95-77.85,46.16-80.87,17.25-2.34,23.6,18.06,25.91,35.59l50.39,383A21.38,21.38,0,0,0,572,556.93a21,21,0,0,0,2.84-.19,21.53,21.53,0,0,0,18.26-24.26L566.92,333.84c-1.12-7.87,2.6-14.18,5.93-18.09a39.58,39.58,0,0,1,29.47-13.36c6.12,0,18.86,0,21.09,38.65l14.47,250.59V752.09c0,30-8.61,60.74-17.72,93.25-7.6,27.11-15.4,55-18.23,83.48H523.24a21.6,21.6,0,0,0,0,43.19h96.91ZM154.74,594.82c16.11-7,30.69-15.9,44-24,36-21.89,47.58-26.13,60.24-14.28,53,49.6,57.53,64.32,43.73,80.93-15.06,18.11-31.94,37-43,40-7,1.92-17-2.39-35.4-12.14-24.69-13.1-35.36-27.8-46.64-43.37-6.53-9-13.42-18.51-22.9-27.22Z"/><path id="Path" class="cls-1" d="M446.52,935.56h0a21.26,21.26,0,1,0,21.28,21.26,21.25,21.25,0,0,0-21.28-21.26Z"/></g></g></g></g></g></g></svg>