<?xml version="1.0" encoding="utf-8"?>
<!-- Generator: Adobe Illustrator 23.1.1, SVG Export Plug-In . SVG Version: 6.00 Build 0)  -->
<svg version="1.1" id="Calque_1" xmlns="http://www.w3.org/2000/svg" xmlns:xlink="http://www.w3.org/1999/xlink" x="0px" y="0px"
	 viewBox="0 0 120 126" style="enable-background:new 0 0 120 126;" xml:space="preserve">
<style type="text/css">
	.st0{fill:#4D4D4D;}
	.st1{fill:#666666;}
	.st2{fill:#E9B44C;}
	.st3{fill:#CD9934;}
	.st4{fill:#B7F3EC;}
	.st5{fill:#8EDDD6;}
	.st6{fill:#6BB5AD;}
	.st7{fill:#E6E6E6;}
	.st8{fill:#B3B3B3;}
	.st9{fill:#F2F2F2;}
</style>
<title>autobus</title>
<g id="Page-1">
	<g id="Home" transform="translate(-127.000000, -137.000000)">
		<g id="autobus" transform="translate(127.000000, 137.000000)">
			<g id="Group" transform="translate(24.000000, 106.000000)">
				<path id="Path" class="st0" d="M14.9,0.1v16.7c0,1.8-1.5,3.2-3.3,3.2H3.3c-1.8,0-3.3-1.4-3.3-3.2V0.1H14.9z"/>
				<path class="st0" d="M75,0.1v16.7c0,1.8-1.5,3.2-3.3,3.2h-8.3c-1.8,0-3.3-1.4-3.3-3.2V0.1H75z"/>
			</g>
			<g transform="translate(27.000000, 106.000000)">
				<path class="st1" d="M10.8,0.1v16.7c0,1.8-1.5,3.2-3.3,3.2H3.5c-1.8,0-3.3-1.4-3.3-3.2V0.1H10.8z"/>
				<path class="st1" d="M70,0.1v16.7c0,1.8-1.5,3.2-3.3,3.2h-4.1c-1.8,0-3.3-1.4-3.3-3.2V0.1H70z"/>
			</g>
			<g transform="translate(24.000000, 106.000000)">
				<rect x="0" y="0.1" class="st0" width="14.9" height="12.8"/>
				<rect x="60.1" y="0.1" class="st0" width="14.9" height="12.8"/>
			</g>
			<path class="st2" d="M114.1,33H68v32h46.1c3.3,0,5.9-2.7,5.9-6V39C120,35.7,117.4,33,114.1,33z"/>
			<path class="st3" d="M5.9,33H52v32H5.9C2.6,65,0,62.3,0,59V39C0,35.7,2.6,33,5.9,33z"/>
			<path class="st2" d="M96.8,0H24.2C17.4,0,12,5.5,12,12.2v86.6c0,6.7,5.4,12.2,12.2,12.2h72.7c6.7,0,12.2-5.5,12.2-12.2V12.2
				C109,5.5,103.6,0,96.8,0z"/>
			<path class="st3" d="M20.2,98.8V12.2C20.2,5.5,25.5,0,32,0h-9.2C16.3,0,11,5.5,11,12.2v86.6c0,6.7,5.3,12.2,11.8,12.2H32
				C25.5,111,20.2,105.5,20.2,98.8z"/>
			<g transform="translate(19.000000, 90.000000)">
				<ellipse id="Oval" class="st4" cx="7.1" cy="6.5" rx="7" ry="6.4"/>
				<ellipse class="st4" cx="75.9" cy="6.5" rx="7" ry="6.4"/>
			</g>
			<g transform="translate(19.000000, 90.000000)">
				<path class="st5" d="M8.8,6.5c0,2.9-1.8,5.4-4.3,6.4c-2.5-1-4.3-3.5-4.3-6.4c0-2.9,1.8-5.4,4.3-6.4C7,1.1,8.8,3.6,8.8,6.5z"/>
				<path class="st5" d="M77.9,6.5c0,2.9-1.8,5.4-4.3,6.4c-2.5-1-4.3-3.5-4.3-6.4c0-2.9,1.8-5.4,4.3-6.4C76.1,1.1,77.9,3.6,77.9,6.5
					z"/>
			</g>
			<g transform="translate(17.000000, 88.000000)">
				<path id="Shape" class="st3" d="M9.1,17.9c-1.2,0-2.3-0.2-3.4-0.7C2.3,15.8,0.1,12.6,0.1,9c0-3.6,2.2-6.8,5.6-8.2
					c1.1-0.4,2.2-0.7,3.4-0.7c5,0,9,4,9,8.9S14.1,17.9,9.1,17.9z M9.1,3.9c-0.7,0-1.3,0.1-2,0.4C5.2,5.1,4,6.9,4,9
					c0,2.1,1.2,3.9,3.2,4.7c0.6,0.3,1.3,0.4,2,0.4c2.8,0,5.1-2.3,5.1-5.1S12,3.9,9.1,3.9z"/>
				<path class="st3" d="M78.9,17.9c-1.2,0-2.3-0.2-3.4-0.7c-3.4-1.4-5.6-4.6-5.6-8.2c0-3.6,2.2-6.8,5.6-8.2
					c1.1-0.4,2.2-0.7,3.4-0.7c5,0,9,4,9,8.9S83.8,17.9,78.9,17.9z M78.9,3.9c-0.7,0-1.3,0.1-2,0.4C75,5.1,73.7,6.9,73.7,9
					c0,2.1,1.2,3.9,3.2,4.7c0.6,0.3,1.3,0.4,2,0.4C81.7,14,84,11.8,84,9S81.7,3.9,78.9,3.9z"/>
			</g>
			<path class="st5" d="M109,16.8v57.4c0,3.8-3.1,6.8-6.8,6.8H18.8c-3.8,0-6.8-3.1-6.8-6.8V16.8c0-3.8,3.1-6.8,6.8-6.8h83.4
				C105.9,10,109,13,109,16.8z"/>
			<path class="st6" d="M21,10c-0.1,0.7-0.2,1.4-0.2,2.1V81H18c-3.9,0-7-3.1-7-6.8V16.8c0-3.8,3.1-6.8,7-6.8H21z"/>
			<path class="st4" d="M99,10c0.1,0.7,0.2,1.4,0.2,2.1V81h2.8c3.9,0,7-3.1,7-6.8V16.8c0-3.8-3.1-6.8-7-6.8H99z"/>
			<path class="st7" d="M109,16.8V28H12V16.8c0-3.8,3.1-6.8,6.8-6.8h83.4C105.9,10,109,13.1,109,16.8z"/>
			<path class="st8" d="M21,10c-0.1,0.7-0.2,1.4-0.2,2.1V28H11V16.8c0-3.8,3.1-6.8,7-6.8C18,10,21,10,21,10z"/>
			<path class="st9" d="M109,16.8V28h-9.8V12.1c0-0.7-0.1-1.4-0.2-2.1h3C105.9,10,109,13.1,109,16.8z"/>
			<path class="st3" d="M72.7,90H47c-4.1,0-7.5,3.3-7.5,7.4v3.4c0,5.1-4.2,9.2-9.3,9.2H24h72h-6.5c-5.1,0-9.3-4.1-9.3-9.2v-3.4
				C80.1,93.3,76.8,90,72.7,90z"/>
			<path class="st0" d="M72,106H49c-1.6,0-3-1.3-3-2.8v-3.4c0-1.6,1.3-2.8,3-2.8H72c1.6,0,3,1.3,3,2.8v3.4C75,104.7,73.7,106,72,106
				z"/>
		</g>
	</g>
</g>
</svg>
