<?xml version="1.0" encoding="UTF-8"?>
<svg width="120px" height="126px" viewBox="0 0 120 126" version="1.1" xmlns="http://www.w3.org/2000/svg" xmlns:xlink="http://www.w3.org/1999/xlink">
    <title>autobus</title>
    <defs>
        <linearGradient x1="33.1011766%" y1="-2.8751701%" x2="44.8281442%" y2="30.2358655%" id="linearGradient-1">
            <stop stop-color="#D4D4D6" offset="0%"></stop>
            <stop stop-color="#A9A9AD" offset="100%"></stop>
            <stop stop-color="#A9A9AD" offset="100%"></stop>
        </linearGradient>
    </defs>
    <g id="Page-1" stroke="none" stroke-width="1" fill="none" fill-rule="evenodd">
        <g id="Home" transform="translate(-127.000000, -137.000000)">
            <rect id="Rectangle" fill="url(#linearGradient-1)" x="0" y="0" width="375" height="667"></rect>
            <g id="autobus" transform="translate(127.000000, 137.000000)" fill-rule="nonzero">
                <g id="Group" transform="translate(24.000000, 106.000000)" fill="#4D4D4D">
                    <path d="M14.9212993,0.0695091442 L14.9212993,16.7422145 C14.9212993,18.5022429 13.4363487,19.9275362 11.60625,19.9275362 L3.32861842,19.9275362 C1.49827303,19.9275362 0.0160361842,18.5022429 0.0160361842,16.7422145 L0.0160361842,0.0695091442 L14.9212993,0.0695091442 Z" id="Path"></path>
                    <path d="M74.9859375,0.0695091442 L74.9859375,16.7422145 C74.9859375,18.5022429 73.5009868,19.9275362 71.6708882,19.9275362 L63.3932566,19.9275362 C61.5629112,19.9275362 60.0806743,18.5022429 60.0806743,16.7422145 L60.0806743,0.0695091442 L74.9859375,0.0695091442 Z" id="Path"></path>
                </g>
                <g id="Group" transform="translate(27.000000, 106.000000)" fill="#666666">
                    <path d="M10.8113542,0.0695091442 L10.8113542,16.7422145 C10.8113542,18.5022429 9.34840278,19.9275362 7.54541667,19.9275362 L3.4540625,19.9275362 C1.65083333,19.9275362 0.190555556,18.5022429 0.190555556,16.7422145 L0.190555556,0.0695091442 L10.8113542,0.0695091442 Z" id="Path"></path>
                    <path d="M69.9861458,0.0695091442 L69.9861458,16.7422145 C69.9861458,18.5022429 68.5231944,19.9275362 66.7202083,19.9275362 L62.6288542,19.9275362 C60.825625,19.9275362 59.3653472,18.5022429 59.3653472,16.7422145 L59.3653472,0.0695091442 L69.9861458,0.0695091442 Z" id="Path"></path>
                </g>
                <g id="Group" transform="translate(24.000000, 106.000000)" fill="#4D4D4D">
                    <rect id="Rectangle" x="0.0152960526" y="0.0707777778" width="14.9050164" height="12.8283519"></rect>
                    <rect id="Rectangle" x="60.0799342" y="0.0707777778" width="14.9050164" height="12.8283519"></rect>
                </g>
                <path d="M114.106486,33 L68,33 L68,65 L114.10624,65 C117.361198,65 120,62.3333956 120,59.0435875 L120,38.9561635 C120,35.6668534 117.361444,33 114.106486,33 Z" id="Path" fill="#E9B44C"></path>
                <path d="M5.88010966,33 L52,33 L52,65 L5.88010966,65 C2.63269049,65 0,62.3333956 0,59.0435875 L0,38.9561635 C0,35.6668534 2.63269049,33 5.88010966,33 Z" id="Path" fill="#CD9934"></path>
                <path d="M96.8287115,0 L24.1707973,0 C17.4492699,0 12,5.45455572 12,12.1828489 L12,98.8171511 C12,105.545444 17.4492699,111 24.1710429,111 L96.8289571,111 C103.55073,111 109,105.545444 109,98.8171511 L109,12.1828489 C109,5.45455572 103.550485,0 96.8287115,0 Z" id="Path" fill="#E9B44C"></path>
                <path d="M20.2396109,98.8171511 L20.2396109,12.1828489 C20.2396109,5.45455572 25.5049149,0 31.9997627,0 L22.7599146,0 C16.265304,0 11,5.45455572 11,12.1828489 L11,98.8171511 C11,105.545444 16.265304,111 22.7601519,111 L32,111 C25.5049149,111 20.2396109,105.545444 20.2396109,98.8171511 Z" id="Path" fill="#CD9934"></path>
                <g id="Group" transform="translate(19.000000, 90.000000)" fill="#B7F3EC">
                    <ellipse id="Oval" cx="7.07587135" cy="6.46727586" rx="6.97369883" ry="6.44060345"></ellipse>
                    <ellipse id="Oval" cx="75.924614" cy="6.46727586" rx="6.97369883" ry="6.44060345"></ellipse>
                </g>
                <g id="Group" transform="translate(19.000000, 90.000000)" fill="#8EDDD6">
                    <path d="M8.7633,6.46461111 C8.7633,9.34748148 6.97539375,11.8201296 4.43356875,12.8589259 C1.89174375,11.822537 0.1038375,9.34724074 0.1038375,6.46461111 C0.1038375,3.57933333 1.89174375,1.10668519 4.43356875,0.0702962963 C6.97539375,1.10668519 8.7633,3.57933333 8.7633,6.46461111 Z" id="Path"></path>
                    <path d="M77.9127375,6.46461111 C77.9127375,9.34748148 76.1248313,11.8201296 73.5830063,12.8589259 C71.0411813,11.822537 69.253275,9.34724074 69.253275,6.46461111 C69.253275,3.57933333 71.0411813,1.10668519 73.5830063,0.0702962963 C76.1248313,1.10668519 77.9127375,3.57933333 77.9127375,6.46461111 Z" id="Path"></path>
                </g>
                <g id="Group" transform="translate(17.000000, 88.000000)" fill="#CD9934">
                    <path d="M9.13430168,17.8601351 C7.94482682,17.8601351 6.78902793,17.6331892 5.69935196,17.1861081 C2.32610056,15.8081351 0.144782123,12.5802973 0.144782123,8.96448649 C0.144782123,5.34818919 2.32634637,2.12083784 5.70254749,0.741405405 C6.78878212,0.295297297 7.94458101,0.0685945946 9.13454749,0.0685945946 C14.0915531,0.0685945946 18.1243128,4.05924324 18.1243128,8.96448649 C18.1243128,13.8697297 14.0913073,17.8601351 9.13430168,17.8601351 Z M9.13430168,3.88094595 C8.45389944,3.88094595 7.79488268,4.00986486 7.17593296,4.26405405 C5.24386592,5.05313514 3.99736313,6.89764865 3.99736313,8.96424324 C3.99736313,11.0305946 5.24386592,12.8751081 7.17249162,13.662973 C7.79512849,13.9183784 8.45414525,14.0475405 9.13430168,14.0475405 C11.9667709,14.0475405 14.2712402,11.7671351 14.2712402,8.96424324 C14.2712402,6.16135135 11.9665251,3.88094595 9.13430168,3.88094595 Z" id="Shape"></path>
                    <path d="M78.8681564,17.8601351 C77.6786816,17.8601351 76.5228827,17.6331892 75.4332067,17.1861081 C72.0599553,15.8081351 69.8786369,12.5802973 69.8786369,8.96448649 C69.8786369,5.34818919 72.0602011,2.12083784 75.4364022,0.741405405 C76.5226369,0.295297297 77.6784358,0.0685945946 78.8684022,0.0685945946 C83.8254078,0.0685945946 87.8581676,4.05924324 87.8581676,8.96448649 C87.8581676,13.8697297 83.825162,17.8601351 78.8681564,17.8601351 Z M78.8681564,3.88094595 C78.1877542,3.88094595 77.5287374,4.00986486 76.9097877,4.26405405 C74.9777207,5.05313514 73.7312179,6.89764865 73.7312179,8.96424324 C73.7312179,11.0305946 74.9777207,12.8751081 76.9063464,13.662973 C77.5289832,13.9183784 78.188,14.0475405 78.8681564,14.0475405 C81.7006257,14.0475405 84.005095,11.7671351 84.005095,8.96424324 C84.005095,6.16135135 81.7006257,3.88094595 78.8681564,3.88094595 Z" id="Shape"></path>
                </g>
                <path d="M109,16.8115675 L109,74.1884325 C109,77.948965 105.946611,81 102.179847,81 L18.8201533,81 C15.0533895,81 12,77.948965 12,74.1884325 L12,16.8115675 C12,13.0483383 15.0533895,10 18.8201533,10 L102.179847,10 C105.946611,10 109,13.0483383 109,16.8115675 Z" id="Path" fill="#8EDDD6"></path>
                <path d="M21,10 C20.8787619,10.6788522 20.8157483,11.378298 20.8157483,12.0929438 L20.8157483,81 L18.0003025,81 C14.1340424,81 11,77.948965 11,74.1884325 L11,16.8115675 C11,13.0483383 14.1340424,10 18.0003025,10 L21,10 Z" id="Path" fill="#6BB5AD"></path>
                <path d="M99,10 C99.1212381,10.6788522 99.1842517,11.378298 99.1842517,12.0929438 L99.1842517,81 L101.999698,81 C105.865958,81 109,77.948965 109,74.1884325 L109,16.8115675 C109,13.0483383 105.865958,10 101.999698,10 L99,10 Z" id="Path" fill="#B7F3EC"></path>
                <path d="M109,16.8374554 L109,28 L12,28 L12,16.8374554 C12,13.0599237 15.0533817,10 18.820136,10 L102.179618,10 C105.946618,10 109,13.0599237 109,16.8374554 Z" id="Path" fill="#E6E6E6"></path>
                <path d="M21,10 C20.878765,10.6814323 20.815753,11.3835364 20.815753,12.1008982 L20.815753,28 L11,28 L11,16.8374554 C11,13.0599237 14.1339635,10 18.000126,10 C18.0003781,10 21,10 21,10 Z" id="Path" fill="#B3B3B3"></path>
                <path d="M109,16.8374554 L109,28 L99.1842517,28 L99.1842517,12.1008982 C99.1842517,11.3835364 99.120986,10.6814323 99,10 L101.999698,10 C105.865958,10 109,13.0599237 109,16.8374554 Z" id="Path" fill="#F2F2F2"></path>
                <path d="M72.6589609,90 L46.9514539,90 C42.816401,90 39.4641684,93.3061342 39.4641684,97.3843237 L39.4641684,100.814774 C39.4641684,105.887492 35.2945614,110 30.1508699,110 L24,110 L96,110 L89.459545,110 C84.3160968,110 80.1462465,105.887732 80.1462465,100.814774 L80.1462465,97.3843237 C80.1464898,93.3061342 76.7942572,90 72.6589609,90 Z" id="Path" fill="#CD9934"></path>
                <path d="M72.0350371,106 L48.9649629,106 C47.3277493,106 46,104.742053 46,103.189871 L46,99.8101285 C46,98.2584124 47.3272581,97 48.9649629,97 L72.0350371,97 C73.6722507,97 75,98.2579469 75,99.8101285 L75,103.189871 C75,104.74182 73.6724963,106 72.0350371,106 Z" id="Path" fill="#4D4D4D"></path>
            </g>
        </g>
    </g>
</svg>
