<svg xmlns="http://www.w3.org/2000/svg" viewBox="0 0 633.28 452.86"><defs><style>.cls-1{fill:#1c110a;}.cls-2{fill:none;stroke:#1c110a;stroke-linecap:round;stroke-width:30px;}</style></defs><title>Fichier 3</title><g id="Calque_2" data-name="Calque 2"><g id="Calque_1-2" data-name="Calque 1"><g id="Page-1"><g id="Play-Screen"><g id="Arrow---Left"><path id="Path" class="cls-1" d="M510.77,226.43a23.35,23.35,0,0,1-20.07,23.19l-3.15.22H79.42l147.45,148a23.53,23.53,0,0,1,.07,33.1,23.07,23.07,0,0,1-30.22,2.34L194.11,431,6.83,243l-.46-.49c-.48-.51-.93-1-1.36-1.58L6.83,243a24.24,24.24,0,0,1-2.44-2.87c-.44-.64-.86-1.29-1.25-2a22.46,22.46,0,0,1-2.08-4.72c-.17-.57-.33-1.15-.46-1.75-.11-.45-.21-.91-.28-1.37s-.15-1-.2-1.51-.09-1-.11-1.55c0-.29,0-.57,0-.86v-.78c0-.57.06-1.15.12-1.72L0,226.43a24,24,0,0,1,.32-3.92c.1-.58.22-1.17.36-1.75s.24-.91.38-1.35.36-1.07.56-1.6.45-1.07.7-1.59.41-.82.63-1.22a23.51,23.51,0,0,1,1.37-2.17c.08-.11.16-.23.25-.34A23.33,23.33,0,0,1,7,209.67L194.11,21.82a23.08,23.08,0,0,1,32.83.07,23.55,23.55,0,0,1,2.19,30.48L226.87,55,79.45,203l408.1,0A23.32,23.32,0,0,1,510.77,226.43Z"/></g><line id="Line-2" class="cls-2" x1="618.28" y1="15" x2="618.28" y2="437.86"/></g></g></g></g></svg>