<svg xmlns="http://www.w3.org/2000/svg" viewBox="0 0 708 800.35"><defs><style>.cls-1{fill:#e4d6a7;}</style></defs><title>Fichier 1</title><g id="Calque_2" data-name="Calque 2"><g id="Calque_1-2" data-name="Calque 1"><g id="Page-1"><g id="Mid-of-Animation"><g id="Button"><g id="skull"><path id="Path" class="cls-1" d="M423.42,607l-51.29-46.17c-10-9-26.25-9-36.27,0L284.57,607c-16.08,14.48-4.7,39.41,18.14,39.41H405.29C428,646.43,439.57,621.56,423.42,607Z"/><path id="Shape" class="cls-1" d="M230.87,307.83A107.74,107.74,0,1,0,338.61,415.56,107.86,107.86,0,0,0,230.87,307.83Zm0,172.67a64.93,64.93,0,1,1,64.93-64.93A65.21,65.21,0,0,1,230.87,480.5Z"/><path class="cls-1" d="M477.13,307.83A107.74,107.74,0,1,0,584.87,415.57,107.86,107.86,0,0,0,477.13,307.83Zm0,172.67a64.93,64.93,0,1,1,64.93-64.93A65.21,65.21,0,0,1,477.13,480.5Z"/><path class="cls-1" d="M700.34,423.6c24.56-116.82-11.05-236.19-96-320.58h0C537.47,36.58,448.57,0,354,0S170.53,36.58,103.65,103c-84.76,84.21-120.71,203.5-96,320.59a140.83,140.83,0,0,0-1.5,87c14.8,49.43,56,85.93,107.73,95.75,6,1.69,6.32,0,18,1.94a96.91,96.91,0,0,0,9.66,1.19v90.7a69.73,69.73,0,0,0,42.91,64.67c38.86,16.17,99.81,35.45,169.48,35.45H354c69.66,0,130.61-19.28,169.48-35.45a69.75,69.75,0,0,0,42.91-64.66V609.42c3.26-.22,6.31-.63,9.51-1.11,12.48-1.9,13-.14,19.26-2.25C647,595.73,687.83,559,702.2,509.4A140.66,140.66,0,0,0,700.34,423.6Zm-43.5,72.82c-9.62,33.17-37.53,57.69-72.87,64-19.28.58-16.6,4.42-36.45.42a23.56,23.56,0,0,0-28.3,23v116.4a23,23,0,0,1-13.93,21.4c-8.63,3.59-20.25,7.6-33.59,11.89V682.8a23,23,0,0,0-23.28-23.14,23.53,23.53,0,0,0-23.61,23.45v63a383.52,383.52,0,0,1-47.52,6.15V682.8A23,23,0,0,0,354,659.66a23.53,23.53,0,0,0-23.61,23.45V752.6a383.24,383.24,0,0,1-47.52-6.77v-63a23,23,0,0,0-23.28-23.14A23.53,23.53,0,0,0,236,683.11v50.74c-13.34-4.29-24.63-8.61-33.26-12.2a23.69,23.69,0,0,1-14.26-21.73V583.54a23.1,23.1,0,0,0-28-22.66c-21.05,4.24-16.42,0-37.22-.45-34.6-6.38-62.08-30.49-71.85-63.15a94.55,94.55,0,0,1,2.68-63.21,23.3,23.3,0,0,0,1.11-14C30.89,314.75,63.32,209.42,137,136.18a307.49,307.49,0,0,1,433.93,0C646,210.76,676.63,316.88,652.8,420.07a23.26,23.26,0,0,0,1.11,14A94.45,94.45,0,0,1,656.84,496.42Z"/></g></g></g></g></g></g></svg>